<svg width="237" height="371" viewBox="0 0 237 371" fill="none" xmlns="http://www.w3.org/2000/svg">
<path fill-rule="evenodd" clip-rule="evenodd" d="M129.153 43.1994C135.207 46.8467 141.156 48.6099 143.948 47.8903C150.95 46.0859 151.594 20.481 146.176 10.3867C140.758 0.292521 112.906 -4.10722 111.503 15.8927C111.015 22.834 113.931 29.0287 118.239 34.0835L110.515 70.0734H132.953L129.153 43.1994Z" fill="#57331F"/>
<path fill-rule="evenodd" clip-rule="evenodd" d="M130.274 18.1014C132.215 15.2127 134.079 13.0093 136.502 11.7297C146.367 11.8855 147.522 10.1178 147.522 4.15978C145.928 3.02011 140.307 1.10114 134.011 0.561326C130.8 -0.357333 126.994 -0.184514 123.33 1.3479C118.806 2.63113 114.974 5.39456 113.282 10.5683C107.16 21.1295 111.807 32.1232 118.069 35.8788C119.736 33.9047 121.191 31.9916 122.488 30.1603C121.446 29.1421 120.799 27.7211 120.799 26.149C120.799 23.0521 123.31 20.5417 126.408 20.5417C126.636 20.5417 126.861 20.5552 127.081 20.5816C127.221 24.4535 127.794 37.553 129.301 42.1032C131.078 47.4676 141.445 48.7848 145.062 48.7848C148.184 48.7848 148.078 45.8286 148.002 43.71C147.99 43.4049 147.981 43.1172 147.981 42.8581C147.981 42.3169 147.276 42.3183 146.48 42.3198C145.447 42.3219 144.26 42.3243 144.26 41.1392C144.26 39.8476 146.046 38.8568 147.644 37.9702C148.641 37.4171 149.564 36.9044 149.936 36.3847C151.108 34.7448 151.502 32.5329 149.735 32.5329C148.768 32.5329 147.442 33.0899 145.847 33.76C143.438 34.7716 140.416 36.041 137.091 36.041C131.597 36.041 130.29 18.3225 130.274 18.1014Z" fill="#191847"/>
<path fill-rule="evenodd" clip-rule="evenodd" d="M108.644 147.642L154.532 263.738L185.309 361.888H197.462L150.41 147.642H108.644Z" fill="#3D2216"/>
<path fill-rule="evenodd" clip-rule="evenodd" d="M99.4039 147.642C98.9149 188.438 91.7885 243.365 90.6498 245.909C89.5112 248.452 12.042 310.588 12.042 310.588L20.4127 319.542C20.4127 319.542 111.82 266.268 116.05 259.162C120.28 252.057 134.051 186.672 145.106 147.642H99.4039Z" fill="#57331F"/>
<path fill-rule="evenodd" clip-rule="evenodd" d="M13.3657 308.834C13.0736 307.825 12.0117 307.224 11.0241 307.583C9.14729 308.266 6.34456 309.391 5.11238 310.425C3.17502 312.05 0 315.812 0 315.812C1.88577 318.059 33.8957 356.191 33.8957 356.191C33.8957 356.191 40.4225 353.398 37.9909 349.659C35.5593 345.92 34.0109 343.397 34.0109 343.397L26.6162 317.572C26.477 317.086 25.9639 316.811 25.4819 316.963L21.5049 318.224C21.5049 318.224 17.4044 316.314 15.7568 314.351C14.739 313.138 13.8764 310.599 13.3657 308.834Z" fill="#E4E4E4"/>
<path fill-rule="evenodd" clip-rule="evenodd" d="M182.849 356.28C181.889 355.854 180.747 356.282 180.387 357.269C179.703 359.144 178.765 362.014 178.765 363.622C178.765 366.15 179.607 371 179.607 371C182.54 371 232.339 371 232.339 371C232.339 371 234.395 364.207 229.967 363.665C225.537 363.124 222.609 362.687 222.609 362.687L198.063 351.75C197.602 351.544 197.062 351.76 196.869 352.228L195.279 356.083C195.279 356.083 191.179 357.995 188.615 357.995C187.031 357.995 184.53 357.023 182.849 356.28Z" fill="#E4E4E4"/>
<path fill-rule="evenodd" clip-rule="evenodd" d="M139.497 351.779L197.28 345.51L154.456 147.642H102.701L139.497 351.779Z" fill="#69A1AC"/>
<path fill-rule="evenodd" clip-rule="evenodd" d="M23.9941 296.143L61.8965 340.988C61.8965 340.988 121.78 275.611 131.72 255.672C141.661 235.733 149.593 147.642 149.593 147.642H91.3271C91.3271 147.642 86.994 225.14 85.4857 228.746C83.9773 232.352 23.9941 296.143 23.9941 296.143Z" fill="#89C5CC"/>
<path fill-rule="evenodd" clip-rule="evenodd" d="M44.505 189.61C47.2445 184.054 60.9337 112.548 60.9337 112.548L81.4066 112.625C81.4066 112.625 58.0175 188.372 56.5755 191.944C54.702 196.586 57.8838 203.329 60.0418 207.902C60.3756 208.609 60.6852 209.264 60.9472 209.851C57.9529 211.191 56.5145 209.572 54.9981 207.866C53.286 205.937 51.4735 203.898 47.2068 205.882C45.5584 206.649 43.9989 207.555 42.4751 208.44C37.2115 211.499 32.3759 214.308 25.7978 210.251C24.755 209.607 23.6122 207.185 26.3734 205.293C33.2525 200.579 43.1653 192.326 44.505 189.61ZM216.93 161.749L190.445 135.922L181.648 151.136L209.189 167.367C216.094 178.241 220.15 182.939 221.356 181.462C222.373 180.217 221.907 178.851 221.477 177.594C221.144 176.614 220.831 175.701 221.26 174.96C222.238 173.267 227.768 174.236 232.976 175.381C238.183 176.525 236.979 173.967 235.872 172.633C230.95 168.662 224.636 165.034 216.93 161.749Z" fill="#57331F"/>
<path fill-rule="evenodd" clip-rule="evenodd" d="M123.318 54.4957L131.403 53.1094C144.138 98.11 209.574 128.784 213.591 145.606C215.064 151.776 210.622 154.894 212.917 156.773L202.408 164.463C200.629 162.387 196.832 166.184 188.901 163.528C180.971 160.873 123.318 107.78 123.318 54.4957Z" fill="#191847"/>
<path fill-rule="evenodd" clip-rule="evenodd" d="M108.788 45.0899C106.811 44.9517 105.096 46.4427 104.958 48.4202L104.565 54.0427C89.349 65.7471 51.6398 100.719 41.8133 165.824C40.781 172.663 42.648 176.326 44.1393 179.253C45.1595 181.255 46.0048 182.913 45.6252 185.007L59.3782 188.801C59.3782 187.255 61.1118 186.079 63.3478 184.562C66.5988 182.355 70.9139 179.427 72.5093 173.591C74.0212 168.058 76.2358 161.149 78.881 153.462C79.1314 163.643 81.0624 173.005 85.2698 180.759C95.7674 200.106 156.427 178.889 162.765 159.153C166.146 148.621 161.348 139.779 155.001 128.085C146.945 113.242 136.395 93.8031 136.917 60.4781L137.601 50.702C137.739 48.7244 136.248 47.0096 134.271 46.8714L108.788 45.0899Z" fill="#2F3676"/>
</svg>
